# xmcd CD database file
#
# Track frame offsets:
#	150
#	13997
#	29530
#	44508
#	62478
#	91015
#
# Disc length: 1426 seconds
#
# Revision: 0
# Processed by: cddbd v1.5.1PL0 Copyright (c) Steve Scherf et al.
# Submitted via: CDex 1.51
#
DISCID=46059006
DTITLE=歌姫楽団 - 亜細亜号の夜
DYEAR=2003
DGENRE=JPop
TTITLE0=超特急亜細亜号
TTITLE1=真夜中のメランコリー
TTITLE2=Sing
TTITLE3=Sugar
TTITLE4=最高の瞬間
TTITLE5=五月の憂鬱の中
EXTD=YEAR: 2003
EXTT0=
EXTT1=
EXTT2=
EXTT3=
EXTT4=
EXTT5=
PLAYORDER=
